<?xml version="1.0" encoding="UTF-8"?>
<svg version="1.1" viewBox="0 0 1288 820" width="302" height="285" xmlns="http://www.w3.org/2000/svg">
<path transform="translate(41)" d="m0 0h1195l20 13 12 12 8 13 6 16 2 13v680l-2 13-4 12-5 10-8 11-9 9-13 8-11 5-16 5h-1179l-13-8-7-6-7-10-5-12-5-21v-712l8-21 8-11 9-9 15-9zm992 215-18 49-11 29-8 6-17 10-15 9-16 10-1 3v42l49 1v179l1 23 3 22 5 18 8 16 6 9 9 10 9 8 14 8 16 6 18 4 19 2h27l21-2 23-4 25-7 9-4v-77l-17 4-25 5-8 1h-26l-13-4-8-6-5-6-4-8-2-10-1-188h105v-78h-105v-79l-1-1zm-783 73-26 3-25 6-19 7-17 9-13 9-11 9-14 14-12 17-8 14-8 17-7 22-4 19-3 23v49l3 24 5 23 8 23 8 16 6 11 12 16 12 13 10 9 14 10 16 9 16 7 15 5 18 4 26 3h25l22-2 24-5 21-7 19-9 11-7 12-9 12-11 10-11 10-14 10-18 8-20 6-21 4-22 2-23v-34l-2-22-5-26-9-27-8-16-9-15-10-13-12-13-14-12-19-12-19-9-18-6-17-4-26-3zm281 7-1 2v245l1 22 3 20 4 16 7 17 10 16 12 13 10 9 19 11 16 6 17 4 24 3h24l22-3 23-6 23-11 14-10 15-15 7-9h4l13 45 1 2h79l1-376-1-1h-102l-1 1-1 195-2 24-4 22-5 16-7 14-7 9-9 8-15 7-12 3-7 1h-24l-12-3-12-6-8-8-8-14-5-17-2-14-1-217v-20l-1-1z" fill="#D69851"/>
<path transform="translate(252,372)" d="m0 0h25l16 3 16 8 12 11 7 11 7 16 5 22 2 17v47l-4 27-5 17-8 16-7 9-10 9-12 6-16 4-10 1h-10l-19-3-13-5-11-8-7-7-7-11-5-10-5-16-3-16-2-18v-38l3-25 5-19 5-12 7-12 8-9 10-7 12-5z" fill="#D69953"/>
</svg>
