<?xml version="1.0" encoding="UTF-8"?>
<svg version="1.1" viewBox="0 0 2048 411" width="1020" height="205" xmlns="http://www.w3.org/2000/svg">
<path transform="translate(1333)" d="m0 0h601l13 9 7 10 3 8 1 12v327l-1 15-4 10-6 8-8 6-8 4-7 2h-593l-8-6-5-6-3-7-2-12v-353l4-12 7-9zm499 108-5 12-10 26-3 3-25 15v23h24v97l2 16 4 13 7 10 7 7 14 7 14 3h27l17-3 13-4 2-1v-39l-25 5h-13l-10-4-5-8-1-5-1-94h53v-39h-53v-40zm-391 36-18 2-17 5-15 8-12 10-10 13-7 14-5 16-2 13v34l4 20 6 15 8 13 11 12 12 9 15 7 15 4 7 1h26l20-4 12-5 11-6 12-11 7-8 8-14 5-14 3-14 1-9v-25l-3-19-6-18-7-12-7-9-9-9-11-7-12-6-14-4-17-2zm138 4v127l2 18 4 13 7 12 10 10 10 6 16 5 7 1h24l17-4 15-8 10-9 5-6 3 7 5 17h40v-189h-52l-1 105-3 18-5 12-5 7-8 5-12 3h-13l-11-4-6-7-4-9-2-12-1-118z" fill="#D59851"/>
<path transform="translate(1196,58)" d="m0 0h59v294l-54 1-1-1-1-21-9 8-10 6-12 5-17 4-7 1h-26l-17-4-12-5-12-7-13-11-10-13-8-16-4-12-3-16-1-10v-13l2-17 6-20 7-14 8-11 9-10 14-10 14-7 13-4 17-2 20 1 15 3 16 7 13 10 3 4zm-60 140-15 5-11 8-8 10-5 11-3 16v13l3 14 5 12 8 10 11 8 9 4 13 2 15-1 13-4 11-7 9-10 6-13 2-6 1-8v-16l-2-12-5-12-8-11-14-9-14-4z" fill="#D59851"/>
<path transform="translate(626,58)" d="m0 0h59v175h2l2-4 10-11 7-8 12-14 9-10 7-8 12-14 7-8 70-1-2 4-12 13-7 8-9 10-12 14-10 11-7 8-13 15-6 8 10 12 12 16 12 15 13 17 35 45v2h-69l-7-8-10-14-12-16-28-38-15-20-1 95h-59z" fill="#D59851"/>
<path transform="translate(505,153)" d="m0 0h13l19 3 14 5 13 9 7 8 8 14 5 17 2 12 1 29v102h-60l-1-110-2-10-4-11-4-5v-2l-4-2-7-4-8-2h-10l-12 3-11 7-7 10-5 12-2 10-1 104h-59v-196h56l1 26 6-8 12-9 15-7 10-3z" fill="#D59851"/>
<path transform="translate(916,153)" d="m0 0 25 1 15 3 14 5 13 8 10 9 7 8 9 15 7 21 3 19v29l-1 1-139 1 2 11 7 14 9 9 13 6 12 2 14-1 12-3 15-8 11-10 1-2 4 2 32 26 1 4-9 9-14 9-13 6-17 5-20 3h-29l-20-4-16-6-14-9-10-9-9-10-9-16-7-21-2-11-1-21 1-15 4-18 7-16 7-11 9-10 12-9 16-8 12-4 17-3zm0 40-13 4-10 7-7 8-5 10-3 12 6 1h77l1-1v-9l-5-13-7-9-10-7-10-3z" fill="#D59851"/>
<path transform="translate(75,58)" d="m0 0h59v235h118l1 1v58l-173 1-5-1z" fill="#D59851"/>
<path transform="translate(291,156)" d="m0 0h60v196h-60z" fill="#D59953"/>
<path transform="translate(1441,186)" d="m0 0h9l11 2 10 6 6 7 5 12 3 17v25l-3 17-4 10-7 9-8 5-7 2-12 1-12-2-10-6-6-7-5-11-3-14-1-11v-11l2-18 4-13 6-10 8-6 8-3z" fill="#D59851"/>
<path transform="translate(314,52)" d="m0 0h15l11 4 10 9 5 8 2 6v17l-6 12-6 7-8 5-11 3h-9l-10-3-9-6-7-8-4-10-1-5v-8l4-13 7-9 9-6z" fill="#D59851"/>
</svg>
